<?xml version="1.0" encoding="iso-8859-1"?>
<!-- Uploaded to: SVG Repo, www.svgrepo.com, Generator: SVG Repo Mixer Tools -->
<svg version="1.1" id="Layer_1" xmlns="http://www.w3.org/2000/svg" xmlns:xlink="http://www.w3.org/1999/xlink" 
	 viewBox="0 0 511.999 511.999" xml:space="preserve">
<g>
	<path style="fill:#E6BA9C;" d="M92.973,177.172L92.973,177.172c-16.027,0-29.019,12.992-29.019,29.019H29.463v96.07h34.491v15.436
		l58.038-6.724V206.191C121.992,190.164,108.999,177.172,92.973,177.172z"/>
	<rect x="121.989" y="206.188" style="fill:#E6BA9C;" width="34.491" height="96.069"/>
</g>
<path style="fill:#D9AF93;" d="M180.03,310.973V206.19c0-16.026-12.992-29.019-29.019-29.019l0,0
	c-16.027,0-29.019,12.992-29.019,29.019v111.506L180.03,310.973z"/>
<path style="fill:#F2C4A4;" d="M203.984,338.92l-21.354-9.855L75.165,273.008c-6.878-3.587-11.19-10.702-11.19-18.459v-48.358
	c0-16.026-12.992-29.019-29.019-29.019l0,0c-16.027,0-29.019,12.992-29.019,29.019v67.703c0,16.515,7.507,32.133,20.403,42.45
	l58.916,32.24c13.673,10.939,21.632,27.498,21.632,45.008v118.407h116.796V363.816L203.984,338.92z"/>
<g>
	<path style="fill:#E6BA9C;" d="M419.026,177.172L419.026,177.172c16.027,0,29.019,12.992,29.019,29.019h34.491v96.07h-34.491
		v15.436l-58.038-6.724V206.191C390.007,190.164,403,177.172,419.026,177.172z"/>
	<rect x="355.52" y="206.188" style="fill:#E6BA9C;" width="34.491" height="96.069"/>
</g>
<path style="fill:#D9AF93;" d="M331.969,310.973V206.19c0-16.026,12.992-29.019,29.019-29.019l0,0
	c16.027,0,29.019,12.992,29.019,29.019v111.506L331.969,310.973z"/>
<path style="fill:#F2C4A4;" d="M308.015,338.92l21.354-9.855l107.465-56.056c6.878-3.587,11.19-10.702,11.19-18.459v-48.358
	c0-16.026,12.992-29.019,29.019-29.019l0,0c16.027,0,29.019,12.992,29.019,29.019v67.703c0,16.515-7.507,32.133-20.403,42.45
	l-58.916,32.24c-13.673,10.939-21.632,27.498-21.632,45.008v118.407H288.316V363.816L308.015,338.92z"/>
<g>
	<path style="fill:#FFD77A;" d="M81.483,150.772c-1.575,0-3.166-0.452-4.571-1.395l-44.573-29.931
		c-3.766-2.53-4.768-7.631-2.239-11.397s7.63-4.769,11.397-2.239L86.07,135.74c3.766,2.53,4.768,7.631,2.239,11.397
		C86.724,149.497,84.127,150.772,81.483,150.772z"/>
	<path style="fill:#FFD77A;" d="M158.177,88.373c-2.823,0-5.571-1.456-7.098-4.069l-27.095-46.353
		c-2.289-3.916-0.97-8.946,2.946-11.235c3.915-2.288,8.946-0.97,11.235,2.946l27.095,46.353c2.289,3.916,0.97,8.946-2.946,11.235
		C161.012,88.011,159.585,88.373,158.177,88.373z"/>
	<path style="fill:#FFD77A;" d="M430.516,150.772c-2.645,0-5.241-1.276-6.826-3.636c-2.528-3.766-1.527-8.868,2.239-11.397
		l44.573-29.931c3.766-2.528,8.868-1.525,11.397,2.239c2.528,3.766,1.527,8.868-2.239,11.397l-44.574,29.932
		C433.682,150.319,432.09,150.772,430.516,150.772z"/>
	<path style="fill:#FFD77A;" d="M353.822,88.373c-1.408,0-2.834-0.362-4.137-1.124c-3.916-2.289-5.235-7.319-2.946-11.235
		l27.095-46.353c2.29-3.916,7.319-5.234,11.235-2.946c3.916,2.289,5.235,7.319,2.946,11.235L360.92,84.304
		C359.392,86.917,356.644,88.373,353.822,88.373z"/>
	<path style="fill:#FFD77A;" d="M255.999,67.385c-4.536,0-8.213-3.677-8.213-8.213V8.213c0-4.536,3.677-8.213,8.213-8.213
		c4.536,0,8.213,3.677,8.213,8.213v50.96C264.212,63.708,260.535,67.385,255.999,67.385z"/>
</g>
<g>
	<path style="fill:#FFCEAD;" d="M203.892,300.696l-50.047-29.869c-12.831-7.659-29.398-3.603-37.263,9.027
		c-8.113,13.028-3.446,30.44,9.733,38.306l45.979,27.441l51.389,28.005l0.001-38.049
		C223.684,321.262,216.167,308.022,203.892,300.696z"/>
	<path style="fill:#FFCEAD;" d="M308.107,300.696l50.047-29.869c12.831-7.659,29.398-3.603,37.263,9.027
		c8.113,13.028,3.446,30.44-9.733,38.306l-45.979,27.441l-51.389,28.005l-0.001-38.049
		C288.315,321.262,295.832,308.022,308.107,300.696z"/>
</g>
</svg>